<svg id="visual" viewBox="0 0 3000 3000" width="3000" height="3000" xmlns="http://www.w3.org/2000/svg" xmlns:xlink="http://www.w3.org/1999/xlink" version="1.1">
  <path d="M0 331L41.7 311C83.3 291 166.7 251 250 246C333.3 241 416.7 271 500 281C583.3 291 666.7 281 750 286C833.3 291 916.7 311 1000 321C1083.3 331 1166.7 331 1250 336C1333.3 341 1416.7 351 1500 341C1583.3 331 1666.7 301 1750 271C1833.3 241 1916.7 211 2000 221C2083.3 231 2166.7 281 2250 311C2333.3 341 2416.7 351 2500 351C2583.3 351 2666.7 341 2750 326C2833.3 311 2916.7 291 2958.3 281L3000 271L3000 0L2958.3 0C2916.7 0 2833.3 0 2750 0C2666.7 0 2583.3 0 2500 0C2416.7 0 2333.3 0 2250 0C2166.7 0 2083.3 0 2000 0C1916.7 0 1833.3 0 1750 0C1666.7 0 1583.3 0 1500 0C1416.7 0 1333.3 0 1250 0C1166.7 0 1083.3 0 1000 0C916.7 0 833.3 0 750 0C666.7 0 583.3 0 500 0C416.7 0 333.3 0 250 0C166.7 0 83.3 0 41.7 0L0 0Z" fill="#1D4044"></path>
  <path d="M0 1111L41.7 1056C83.3 1001 166.7 891 250 871C333.3 851 416.7 921 500 951C583.3 981 666.7 971 750 976C833.3 981 916.7 1001 1000 1046C1083.3 1091 1166.7 1161 1250 1146C1333.3 1131 1416.7 1031 1500 986C1583.3 941 1666.7 951 1750 966C1833.3 981 1916.7 1001 2000 976C2083.3 951 2166.7 881 2250 881C2333.3 881 2416.7 951 2500 996C2583.3 1041 2666.7 1061 2750 1106C2833.3 1151 2916.7 1221 2958.3 1256L3000 1291L3000 269L2958.3 279C2916.7 289 2833.3 309 2750 324C2666.7 339 2583.3 349 2500 349C2416.7 349 2333.3 339 2250 309C2166.7 279 2083.3 229 2000 219C1916.7 209 1833.3 239 1750 269C1666.7 299 1583.3 329 1500 339C1416.7 349 1333.3 339 1250 334C1166.7 329 1083.3 329 1000 319C916.7 309 833.3 289 750 284C666.7 279 583.3 289 500 279C416.7 269 333.3 239 250 244C166.7 249 83.3 289 41.7 309L0 329Z" fill="#2a4f53"></path>
  <path d="M0 1291L41.7 1251C83.3 1211 166.7 1131 250 1116C333.3 1101 416.7 1151 500 1186C583.3 1221 666.7 1241 750 1256C833.3 1271 916.7 1281 1000 1306C1083.3 1331 1166.7 1371 1250 1346C1333.3 1321 1416.7 1231 1500 1196C1583.3 1161 1666.7 1181 1750 1191C1833.3 1201 1916.7 1201 2000 1201C2083.3 1201 2166.7 1201 2250 1216C2333.3 1231 2416.7 1261 2500 1296C2583.3 1331 2666.7 1371 2750 1436C2833.3 1501 2916.7 1591 2958.3 1636L3000 1681L3000 1289L2958.3 1254C2916.7 1219 2833.3 1149 2750 1104C2666.7 1059 2583.3 1039 2500 994C2416.7 949 2333.3 879 2250 879C2166.7 879 2083.3 949 2000 974C1916.7 999 1833.3 979 1750 964C1666.7 949 1583.3 939 1500 984C1416.7 1029 1333.3 1129 1250 1144C1166.7 1159 1083.3 1089 1000 1044C916.7 999 833.3 979 750 974C666.7 969 583.3 979 500 949C416.7 919 333.3 849 250 869C166.7 889 83.3 999 41.7 1054L0 1109Z" fill="#2C7A7B"></path>
  <path d="M0 1741L41.7 1701C83.3 1661 166.7 1581 250 1566C333.3 1551 416.7 1601 500 1641C583.3 1681 666.7 1711 750 1716C833.3 1721 916.7 1701 1000 1696C1083.3 1691 1166.7 1701 1250 1671C1333.3 1641 1416.7 1571 1500 1526C1583.3 1481 1666.7 1461 1750 1486C1833.3 1511 1916.7 1581 2000 1571C2083.3 1561 2166.7 1471 2250 1481C2333.3 1491 2416.7 1601 2500 1656C2583.3 1711 2666.7 1711 2750 1761C2833.3 1811 2916.7 1911 2958.3 1961L3000 2011L3000 1679L2958.3 1634C2916.7 1589 2833.3 1499 2750 1434C2666.7 1369 2583.3 1329 2500 1294C2416.7 1259 2333.3 1229 2250 1214C2166.7 1199 2083.3 1199 2000 1199C1916.7 1199 1833.3 1199 1750 1189C1666.7 1179 1583.3 1159 1500 1194C1416.7 1229 1333.3 1319 1250 1344C1166.7 1369 1083.3 1329 1000 1304C916.7 1279 833.3 1269 750 1254C666.7 1239 583.3 1219 500 1184C416.7 1149 333.3 1099 250 1114C166.7 1129 83.3 1209 41.7 1249L0 1289Z" fill="#285E61"></path>
  <path d="M0 2041L41.7 2001C83.3 1961 166.7 1881 250 1881C333.3 1881 416.7 1961 500 2006C583.3 2051 666.7 2061 750 2076C833.3 2091 916.7 2111 1000 2141C1083.3 2171 1166.7 2211 1250 2156C1333.3 2101 1416.7 1951 1500 1866C1583.3 1781 1666.7 1761 1750 1831C1833.3 1901 1916.7 2061 2000 2101C2083.3 2141 2166.7 2061 2250 2066C2333.3 2071 2416.7 2161 2500 2206C2583.3 2251 2666.7 2251 2750 2256C2833.3 2261 2916.7 2271 2958.3 2276L3000 2281L3000 2009L2958.3 1959C2916.7 1909 2833.3 1809 2750 1759C2666.7 1709 2583.3 1709 2500 1654C2416.7 1599 2333.3 1489 2250 1479C2166.7 1469 2083.3 1559 2000 1569C1916.7 1579 1833.3 1509 1750 1484C1666.7 1459 1583.3 1479 1500 1524C1416.7 1569 1333.3 1639 1250 1669C1166.7 1699 1083.3 1689 1000 1694C916.7 1699 833.3 1719 750 1714C666.7 1709 583.3 1679 500 1639C416.7 1599 333.3 1549 250 1564C166.7 1579 83.3 1659 41.7 1699L0 1739Z" fill="#234E52"></path>
  <path d="M0 2701L41.7 2726C83.3 2751 166.7 2801 250 2816C333.3 2831 416.7 2811 500 2796C583.3 2781 666.7 2771 750 2761C833.3 2751 916.7 2741 1000 2756C1083.3 2771 1166.7 2811 1250 2831C1333.3 2851 1416.7 2851 1500 2851C1583.3 2851 1666.7 2851 1750 2826C1833.3 2801 1916.7 2751 2000 2731C2083.3 2711 2166.7 2721 2250 2736C2333.3 2751 2416.7 2771 2500 2786C2583.3 2801 2666.7 2811 2750 2811C2833.3 2811 2916.7 2801 2958.3 2796L3000 2791L3000 2279L2958.3 2274C2916.7 2269 2833.3 2259 2750 2254C2666.7 2249 2583.3 2249 2500 2204C2416.7 2159 2333.3 2069 2250 2064C2166.7 2059 2083.3 2139 2000 2099C1916.7 2059 1833.3 1899 1750 1829C1666.7 1759 1583.3 1779 1500 1864C1416.7 1949 1333.3 2099 1250 2154C1166.7 2209 1083.3 2169 1000 2139C916.7 2109 833.3 2089 750 2074C666.7 2059 583.3 2049 500 2004C416.7 1959 333.3 1879 250 1879C166.7 1879 83.3 1959 41.7 1999L0 2039Z" fill="#1D4044"></path>
  <path d="M0 3001L41.7 3001C83.3 3001 166.7 3001 250 3001C333.3 3001 416.7 3001 500 3001C583.3 3001 666.7 3001 750 3001C833.3 3001 916.7 3001 1000 3001C1083.3 3001 1166.7 3001 1250 3001C1333.3 3001 1416.7 3001 1500 3001C1583.3 3001 1666.7 3001 1750 3001C1833.3 3001 1916.7 3001 2000 3001C2083.3 3001 2166.7 3001 2250 3001C2333.3 3001 2416.7 3001 2500 3001C2583.3 3001 2666.7 3001 2750 3001C2833.3 3001 2916.7 3001 2958.3 3001L3000 3001L3000 2789L2958.3 2794C2916.7 2799 2833.3 2809 2750 2809C2666.7 2809 2583.3 2799 2500 2784C2416.7 2769 2333.3 2749 2250 2734C2166.7 2719 2083.3 2709 2000 2729C1916.7 2749 1833.3 2799 1750 2824C1666.7 2849 1583.3 2849 1500 2849C1416.7 2849 1333.3 2849 1250 2829C1166.7 2809 1083.3 2769 1000 2754C916.7 2739 833.3 2749 750 2759C666.7 2769 583.3 2779 500 2794C416.7 2809 333.3 2829 250 2814C166.7 2799 83.3 2749 41.7 2724L0 2699Z" fill="#1D4044"></path>
</svg>