<svg id="visual" viewBox="0 0 3200 600" width="100%" height="600" xmlns="http://www.w3.org/2000/svg" xmlns:xlink="http://www.w3.org/1999/xlink" version="1.1">
<path d="M0 424L457 390L914 425L1371 378L1829 389L2286 430L2743 411L3200 443L3200 601L2743 601L2286 601L1829 601L1371 601L914 601L457 601L0 601Z" fill="#f5730a"></path>
<path d="M0 470L457 454L914 442L1371 405L1829 419L2286 450L2743 476L3200 442L3200 601L2743 601L2286 601L1829 601L1371 601L914 601L457 601L0 601Z" fill="#da5b09"></path>
<path d="M0 479L457 506L914 495L1371 496L1829 438L2286 459L2743 502L3200 482L3200 601L2743 601L2286 601L1829 601L1371 601L914 601L457 601L0 601Z" fill="#be4407"></path>
<path d="M0 525L457 488L914 499L1371 528L1829 514L2286 527L2743 519L3200 491L3200 601L2743 601L2286 601L1829 601L1371 601L914 601L457 601L0 601Z" fill="#a32d04"></path>
<path d="M0 547L457 568L914 555L1371 527L1829 570L2286 534L2743 561L3200 543L3200 601L2743 601L2286 601L1829 601L1371 601L914 601L457 601L0 601Z" fill="#871400"></path></svg>