<svg id="visual" viewBox="0 0 200 200" width="200" height="200" xmlns="http://www.w3.org/2000/svg" xmlns:xlink="http://www.w3.org/1999/xlink" version="1.1"><rect width="200" height="200" fill="#c1e5ff"></rect><g><g transform="translate(78 137)"><path d="M0 -13.2L8.5 -10.1L13 -2.3L11.4 6.6L4.5 12.4L-4.5 12.4L-11.4 6.6L-13 -2.3L-8.5 -10.1Z" fill="#a2e2ff"></path></g><g transform="translate(107 123)"><path d="M0 -9L5.8 -6.9L8.9 -1.6L7.8 4.5L3.1 8.5L-3.1 8.5L-7.8 4.5L-8.9 -1.6L-5.8 -6.9Z" fill="#a2e2ff"></path></g><g transform="translate(14 43)"><path d="M0 -9L5.8 -6.9L8.9 -1.6L7.8 4.5L3.1 8.5L-3.1 8.5L-7.8 4.5L-8.9 -1.6L-5.8 -6.9Z" fill="#a2e2ff"></path></g><g transform="translate(199 59)"><path d="M0 -7L4.5 -5.4L6.9 -1.2L6.1 3.5L2.4 6.6L-2.4 6.6L-6.1 3.5L-6.9 -1.2L-4.5 -5.4Z" fill="#a2e2ff"></path></g><g transform="translate(171 91)"><path d="M0 -11L7.1 -8.4L10.8 -1.9L9.5 5.5L3.8 10.3L-3.8 10.3L-9.5 5.5L-10.8 -1.9L-7.1 -8.4Z" fill="#a2e2ff"></path></g><g transform="translate(56 16)"><path d="M0 -11L7.1 -8.4L10.8 -1.9L9.5 5.5L3.8 10.3L-3.8 10.3L-9.5 5.5L-10.8 -1.9L-7.1 -8.4Z" fill="#a2e2ff"></path></g><g transform="translate(38 62)"><path d="M0 -6L3.9 -4.6L5.9 -1L5.2 3L2.1 5.6L-2.1 5.6L-5.2 3L-5.9 -1L-3.9 -4.6Z" fill="#a2e2ff"></path></g><g transform="translate(156 129)"><path d="M0 -7L4.5 -5.4L6.9 -1.2L6.1 3.5L2.4 6.6L-2.4 6.6L-6.1 3.5L-6.9 -1.2L-4.5 -5.4Z" fill="#a2e2ff"></path></g><g transform="translate(90 26)"><path d="M0 -6L3.9 -4.6L5.9 -1L5.2 3L2.1 5.6L-2.1 5.6L-5.2 3L-5.9 -1L-3.9 -4.6Z" fill="#a2e2ff"></path></g><g transform="translate(170 46)"><path d="M0 -6L3.9 -4.6L5.9 -1L5.2 3L2.1 5.6L-2.1 5.6L-5.2 3L-5.9 -1L-3.9 -4.6Z" fill="#a2e2ff"></path></g><g transform="translate(127 6)"><path d="M0 -8L5.1 -6.1L7.9 -1.4L6.9 4L2.7 7.5L-2.7 7.5L-6.9 4L-7.9 -1.4L-5.1 -6.1Z" fill="#a2e2ff"></path></g><g transform="translate(119 48)"><path d="M0 -4L2.6 -3.1L3.9 -0.7L3.5 2L1.4 3.8L-1.4 3.8L-3.5 2L-3.9 -0.7L-2.6 -3.1Z" fill="#a2e2ff"></path></g><g transform="translate(55 123)"><path d="M0 -4L2.6 -3.1L3.9 -0.7L3.5 2L1.4 3.8L-1.4 3.8L-3.5 2L-3.9 -0.7L-2.6 -3.1Z" fill="#a2e2ff"></path></g><g transform="translate(67 175)"><path d="M0 -7L4.5 -5.4L6.9 -1.2L6.1 3.5L2.4 6.6L-2.4 6.6L-6.1 3.5L-6.9 -1.2L-4.5 -5.4Z" fill="#a2e2ff"></path></g><g transform="translate(69 55)"><path d="M0 -10L6.4 -7.7L9.8 -1.7L8.7 5L3.4 9.4L-3.4 9.4L-8.7 5L-9.8 -1.7L-6.4 -7.7Z" fill="#a2e2ff"></path></g><g transform="translate(38 89)"><path d="M0 -11L7.1 -8.4L10.8 -1.9L9.5 5.5L3.8 10.3L-3.8 10.3L-9.5 5.5L-10.8 -1.9L-7.1 -8.4Z" fill="#a2e2ff"></path></g><g transform="translate(84 95)"><path d="M0 -7L4.5 -5.4L6.9 -1.2L6.1 3.5L2.4 6.6L-2.4 6.6L-6.1 3.5L-6.9 -1.2L-4.5 -5.4Z" fill="#a2e2ff"></path></g><g transform="translate(4 91)"><path d="M0 -9L5.8 -6.9L8.9 -1.6L7.8 4.5L3.1 8.5L-3.1 8.5L-7.8 4.5L-8.9 -1.6L-5.8 -6.9Z" fill="#a2e2ff"></path></g><g transform="translate(189 5)"><path d="M0 -5L3.2 -3.8L4.9 -0.9L4.3 2.5L1.7 4.7L-1.7 4.7L-4.3 2.5L-4.9 -0.9L-3.2 -3.8Z" fill="#a2e2ff"></path></g><g transform="translate(164 182)"><path d="M0 -10L6.4 -7.7L9.8 -1.7L8.7 5L3.4 9.4L-3.4 9.4L-8.7 5L-9.8 -1.7L-6.4 -7.7Z" fill="#a2e2ff"></path></g><g transform="translate(125 177)"><path d="M0 -12L7.7 -9.2L11.8 -2.1L10.4 6L4.1 11.3L-4.1 11.3L-10.4 6L-11.8 -2.1L-7.7 -9.2Z" fill="#a2e2ff"></path></g><g transform="translate(93 67)"><path d="M0 -4L2.6 -3.1L3.9 -0.7L3.5 2L1.4 3.8L-1.4 3.8L-3.5 2L-3.9 -0.7L-2.6 -3.1Z" fill="#a2e2ff"></path></g><g transform="translate(161 12)"><path d="M0 -10L6.4 -7.7L9.8 -1.7L8.7 5L3.4 9.4L-3.4 9.4L-8.7 5L-9.8 -1.7L-6.4 -7.7Z" fill="#a2e2ff"></path></g><g transform="translate(28 6)"><path d="M0 -11L7.1 -8.4L10.8 -1.9L9.5 5.5L3.8 10.3L-3.8 10.3L-9.5 5.5L-10.8 -1.9L-7.1 -8.4Z" fill="#a2e2ff"></path></g><g transform="translate(112 92)"><path d="M0 -10L6.4 -7.7L9.8 -1.7L8.7 5L3.4 9.4L-3.4 9.4L-8.7 5L-9.8 -1.7L-6.4 -7.7Z" fill="#a2e2ff"></path></g><g transform="translate(4 143)"><path d="M0 -4L2.6 -3.1L3.9 -0.7L3.5 2L1.4 3.8L-1.4 3.8L-3.5 2L-3.9 -0.7L-2.6 -3.1Z" fill="#a2e2ff"></path></g><g transform="translate(191 113)"><path d="M0 -5L3.2 -3.8L4.9 -0.9L4.3 2.5L1.7 4.7L-1.7 4.7L-4.3 2.5L-4.9 -0.9L-3.2 -3.8Z" fill="#a2e2ff"></path></g><g transform="translate(22 168)"><path d="M0 -5L3.2 -3.8L4.9 -0.9L4.3 2.5L1.7 4.7L-1.7 4.7L-4.3 2.5L-4.9 -0.9L-3.2 -3.8Z" fill="#a2e2ff"></path></g><g transform="translate(32 197)"><path d="M0 -8L5.1 -6.1L7.9 -1.4L6.9 4L2.7 7.5L-2.7 7.5L-6.9 4L-7.9 -1.4L-5.1 -6.1Z" fill="#a2e2ff"></path></g><g transform="translate(188 196)"><path d="M0 -9L5.8 -6.9L8.9 -1.6L7.8 4.5L3.1 8.5L-3.1 8.5L-7.8 4.5L-8.9 -1.6L-5.8 -6.9Z" fill="#a2e2ff"></path></g><g transform="translate(116 148)"><path d="M0 -12L7.7 -9.2L11.8 -2.1L10.4 6L4.1 11.3L-4.1 11.3L-10.4 6L-11.8 -2.1L-7.7 -9.2Z" fill="#a2e2ff"></path></g><g transform="translate(145 75)"><path d="M0 -10L6.4 -7.7L9.8 -1.7L8.7 5L3.4 9.4L-3.4 9.4L-8.7 5L-9.8 -1.7L-6.4 -7.7Z" fill="#a2e2ff"></path></g><g transform="translate(34 141)"><path d="M0 -8L5.1 -6.1L7.9 -1.4L6.9 4L2.7 7.5L-2.7 7.5L-6.9 4L-7.9 -1.4L-5.1 -6.1Z" fill="#a2e2ff"></path></g><g transform="translate(91 192)"><path d="M0 -10L6.4 -7.7L9.8 -1.7L8.7 5L3.4 9.4L-3.4 9.4L-8.7 5L-9.8 -1.7L-6.4 -7.7Z" fill="#a2e2ff"></path></g><g transform="translate(175 150)"><path d="M0 -12L7.7 -9.2L11.8 -2.1L10.4 6L4.1 11.3L-4.1 11.3L-10.4 6L-11.8 -2.1L-7.7 -9.2Z" fill="#a2e2ff"></path></g><g transform="translate(145 159)"><path d="M0 -9L5.8 -6.9L8.9 -1.6L7.8 4.5L3.1 8.5L-3.1 8.5L-7.8 4.5L-8.9 -1.6L-5.8 -6.9Z" fill="#a2e2ff"></path></g><g transform="translate(132 112)"><path d="M0 -4L2.6 -3.1L3.9 -0.7L3.5 2L1.4 3.8L-1.4 3.8L-3.5 2L-3.9 -0.7L-2.6 -3.1Z" fill="#a2e2ff"></path></g><g transform="translate(145 33)"><path d="M0 -5L3.2 -3.8L4.9 -0.9L4.3 2.5L1.7 4.7L-1.7 4.7L-4.3 2.5L-4.9 -0.9L-3.2 -3.8Z" fill="#a2e2ff"></path></g><g transform="translate(95 166)"><path d="M0 -4L2.6 -3.1L3.9 -0.7L3.5 2L1.4 3.8L-1.4 3.8L-3.5 2L-3.9 -0.7L-2.6 -3.1Z" fill="#a2e2ff"></path></g></g></svg>