<svg id="visual" viewBox="0 0 1000 300" width="1000" height="300" xmlns="http://www.w3.org/2000/svg" xmlns:xlink="http://www.w3.org/1999/xlink" version="1.1">
  <path d="M0 37L125 37L125 40L250 40L250 64L375 64L375 58L500 58L500 43L625 43L625 10L750 10L750 7L875 7L875 40L1000 40L1000 100L1000 0L1000 0L875 0L875 0L750 0L750 0L625 0L625 0L500 0L500 0L375 0L375 0L250 0L250 0L125 0L125 0L0 0Z" fill="#38B2AC"></path>
  <path d="M0 49L125 49L125 55L250 55L250 85L375 85L375 64L500 64L500 85L625 85L625 19L750 19L750 10L875 10L875 85L1000 85L1000 124L1000 98L1000 38L875 38L875 5L750 5L750 8L625 8L625 41L500 41L500 56L375 56L375 62L250 62L250 38L125 38L125 35L0 35Z" fill="#319795"></path>
  <path d="M0 79L125 79L125 88L250 88L250 91L375 91L375 103L500 103L500 124L625 124L625 49L750 49L750 28L875 28L875 121L1000 121L1000 124L1000 122L1000 83L875 83L875 8L750 8L750 17L625 17L625 83L500 83L500 62L375 62L375 83L250 83L250 53L125 53L125 47L0 47Z" fill="#fcc88a"></path>
  <path d="M0 172L125 172L125 124L250 124L250 103L375 103L375 181L500 181L500 208L625 208L625 91L750 91L750 49L875 49L875 187L1000 187L1000 220L1000 122L1000 119L875 119L875 26L750 26L750 47L625 47L625 122L500 122L500 101L375 101L375 89L250 89L250 86L125 86L125 77L0 77Z" fill="#2C7A7B"></path>
  <path d="M0 178L125 178L125 157L250 157L250 166L375 166L375 229L500 229L500 244L625 244L625 142L750 142L750 94L875 94L875 196L1000 196L1000 268L1000 218L1000 185L875 185L875 47L750 47L750 89L625 89L625 206L500 206L500 179L375 179L375 101L250 101L250 122L125 122L125 170L0 170Z" fill="#285E61"></path>
  <path d="M0 262L125 262L125 271L250 271L250 283L375 283L375 256L500 256L500 259L625 259L625 238L750 238L750 235L875 235L875 256L1000 256L1000 292L1000 266L1000 194L875 194L875 92L750 92L750 140L625 140L625 242L500 242L500 227L375 227L375 164L250 164L250 155L125 155L125 176L0 176Z" fill="#234E52"></path>
  <path d="M0 298L125 298L125 280L250 280L250 295L375 295L375 274L500 274L500 283L625 283L625 244L750 244L750 265L875 265L875 256L1000 256L1000 295L1000 290L1000 254L875 254L875 233L750 233L750 236L625 236L625 257L500 257L500 254L375 254L375 281L250 281L250 269L125 269L125 260L0 260Z" fill="#1D4044"></path>
  <path d="M0 301L125 301L125 301L250 301L250 301L375 301L375 301L500 301L500 301L625 301L625 301L750 301L750 301L875 301L875 301L1000 301L1000 301L1000 293L1000 254L875 254L875 263L750 263L750 242L625 242L625 281L500 281L500 272L375 272L375 293L250 293L250 278L125 278L125 296L0 296Z" fill="#1D4044"></path>
</svg>